# xmcd
# Track frame offsets:
# 150
# 17229
# 34042
# 48651
# 81948
# 98916
# 115939
# 143809
# 160955
# 172645
# 195565
# 208431
#
# Disc length: 3039 seconds
# Revision: 0
# Processed by: cddbd v1.5.1PL0 Copyright (c) Steve Scherf et al.
# Submitted via: VisiTrax 2.9.10.228 - For more info visit www.synapsa.com
#
DISCID=a20bdd0c
DTITLE=The Steve Hill Trio - Plugged
DYEAR=2002
DGENRE=Blues
TTITLE0=Fool With A PhD
TTITLE1=Checking Up On My Baby
TTITLE2=It Ain't Christmas (And I Ain't Santa)
TTITLE3=Sad To Be Alone
TTITLE4=When White Is Black
TTITLE5=Just Like A Fish
TTITLE6=Cleo's Back
TTITLE7=The Farther I'm Going Away
TTITLE8=Snakehipped Woman
TTITLE9=Bo Diddley/You Can't Judge A Book
TTITLE10=Nadine
TTITLE11=I Tried To Please You
EXTD=
EXTT0=
EXTT1=
EXTT2=
EXTT3=
EXTT4=
EXTT5=
EXTT6=
EXTT7=
EXTT8=
EXTT9=
EXTT10=
EXTT11=
PLAYORDER=
